<svg width="320" height="319" viewBox="0 0 320 319" fill="none" xmlns="http://www.w3.org/2000/svg">
<g id="key job placement">
<ellipse id="Ellipse 4.21" cx="160" cy="159.5" rx="160" ry="159.5" fill="#C2530E"/>
<path id="briefcase" d="M182.625 179.821C182.625 183.458 179.734 186.286 176.844 186.286H142.156C138.904 186.286 136.375 183.458 136.375 179.821V160.429H67V218.607C67 229.112 74.9492 238 84.3438 238H234.656C243.689 238 252 229.112 252 218.607V160.429H182.625V179.821ZM234.656 95.7857H205.75V76.3929C205.75 66.2924 197.439 57 188.406 57H130.594C121.199 57 113.25 66.2924 113.25 76.3929V95.7857H84.3438C74.9492 95.7857 67 105.078 67 115.179L67 147.5H252V115.179C252 105.078 243.689 95.7857 234.656 95.7857ZM182.625 95.7857H136.375V82.8571H182.625V95.7857Z" fill="#FFFDFD"/>
</g>
</svg>
