<svg width="320" height="319" viewBox="0 0 320 319" fill="none" xmlns="http://www.w3.org/2000/svg">
<g id="key mental health">
<g id="Group 54">
<ellipse id="Ellipse 4.20" cx="160" cy="159.5" rx="160" ry="159.5" fill="#0072B3"/>
<path id="file-contract" d="M171.5 108.672V59H99.625C94.5938 59 91 63.0176 91 67.7656V237.234C91 242.348 94.5938 246 99.625 246H220.375C225.047 246 229 242.348 229 237.234V117.438H180.125C175.094 117.438 171.5 113.785 171.5 108.672ZM114 85.2969C114 83.8359 115.078 82.375 116.875 82.375H145.625C147.062 82.375 148.5 83.8359 148.5 85.2969V91.1406C148.5 92.9668 147.062 94.0625 145.625 94.0625H116.875C115.078 94.0625 114 92.9668 114 91.1406V85.2969ZM114 108.672C114 107.211 115.078 105.75 116.875 105.75H145.625C147.062 105.75 148.5 107.211 148.5 108.672V114.516C148.5 116.342 147.062 117.438 145.625 117.438H116.875C115.078 117.438 114 116.342 114 114.516V108.672ZM183 199.25H200.25C203.125 199.25 206 202.172 206 205.094C206 208.381 203.125 210.938 200.25 210.938H183C177.25 210.938 171.859 207.65 169.344 202.537C168.266 200.346 166.469 199.98 165.75 199.98C164.672 199.98 162.875 200.346 161.797 202.172L159.281 208.016C158.203 209.842 156.047 210.938 154.25 210.938C153.891 210.938 153.891 210.938 153.531 210.938C151.375 210.938 149.219 209.477 148.5 207.285L142.75 188.658L138.797 200.346C136.641 206.92 130.891 210.938 124.062 210.938H119.75C116.516 210.938 114 208.381 114 205.094C114 202.172 116.516 199.25 119.75 199.25H124.062C125.859 199.25 127.297 198.154 128.016 196.693L134.484 176.605C135.562 172.953 138.797 170.762 142.75 170.762C146.344 170.762 149.578 172.953 150.656 176.605L155.688 191.945C162.875 186.102 175.094 188.293 179.406 197.059C180.125 198.52 181.562 199.25 183 199.25ZM226.484 97.3496L191.266 61.5566C189.469 60.0957 187.312 59 185.156 59H183V105.75H229V103.559C229 101.367 227.922 99.1758 226.484 97.3496Z" fill="#FFFDFD"/>
</g>
</g>
</svg>
