<svg width="320" height="319" viewBox="0 0 320 319" fill="none" xmlns="http://www.w3.org/2000/svg">
<g id="key housing">
<g id="Group 55">
<ellipse id="Ellipse 4.22" cx="160" cy="159.5" rx="160" ry="159.5" fill="#9B7474"/>
<path id="bed" d="M109.425 160C125.031 160 137.8 145.781 137.8 127.5C137.8 109.625 125.031 95 109.425 95C93.4641 95 81.05 109.625 81.05 127.5C81.05 145.781 93.4641 160 109.425 160ZM234.275 108H154.825C151.633 108 149.15 111.25 149.15 114.5V173H69.7V88.5C69.7 85.25 66.8625 82 64.025 82H52.675C49.4828 82 47 85.25 47 88.5V231.5C47 235.156 49.4828 238 52.675 238H64.025C66.8625 238 69.7 235.156 69.7 231.5V212H251.3V231.5C251.3 235.156 253.783 238 256.975 238H268.325C271.163 238 274 235.156 274 231.5V153.5C274 128.719 255.911 108 234.275 108Z" fill="white"/>
</g>
</g>
</svg>
