<svg width="320" height="319" viewBox="0 0 320 319" fill="none" xmlns="http://www.w3.org/2000/svg">
<ellipse cx="160" cy="159.5" rx="160" ry="159.5" fill="#F24A4A"/>
<ellipse cx="159" cy="91.6444" rx="33.7111" ry="44.6444" fill="white"/>
<path d="M278.498 241.067C279.94 241.067 281.186 240.042 281.393 238.615C281.792 235.86 282 233.026 282 230.133C282 202.961 263.644 180.933 241 180.933C218.356 180.933 200 202.961 200 230.133C200 233.026 200.208 235.86 200.607 238.615C200.814 240.042 202.06 241.067 203.502 241.067H278.498Z" fill="white"/>
<path d="M187.488 241C189.042 241 190.341 239.815 190.456 238.266C190.813 233.498 191 228.577 191 223.545C191 180.166 177.121 145 160 145C142.879 145 129 180.166 129 223.545C129 228.577 129.187 233.498 129.544 238.266C129.659 239.815 130.958 241 132.511 241H187.488Z" fill="white"/>
<path d="M115.498 241.067C116.94 241.067 118.186 240.042 118.393 238.615C118.792 235.86 119 233.026 119 230.133C119 202.961 100.644 180.933 78 180.933C55.3563 180.933 37 202.961 37 230.133C37 233.026 37.208 235.86 37.6069 238.615C37.8136 240.042 39.0599 241.067 40.5018 241.067H115.498Z" fill="white"/>
<ellipse cx="241" cy="125.356" rx="33.7111" ry="44.6444" fill="white"/>
<ellipse cx="77.7111" cy="125.356" rx="33.7111" ry="44.6444" fill="white"/>
</svg>
