<svg width="320" height="319" viewBox="0 0 320 319" fill="none" xmlns="http://www.w3.org/2000/svg">
<g id="key education">
<ellipse id="Ellipse 4.5" cx="160" cy="159.5" rx="160" ry="159.5" fill="#9C5A5A"/>
<path id="graduation-cap" d="M281.122 116.952L169.871 81.544C163.889 79.4853 157.111 79.4853 151.129 81.544L39.8784 116.952C30.7072 119.835 30.7072 132.598 39.8784 135.48L51.0434 139.642C51.0434 139.642 52.6384 154.008 52.2396 161.007C48.2522 163.478 45.8597 167.595 45.8597 172.124C45.8597 176.653 47.8534 180.358 51.0434 182.829L44.0747 230.177C43.2772 234.294 46.0684 238 50.0559 238H66.7846C70.7721 238 73.5633 234.294 72.7658 230.177L65.7971 182.829C68.9871 180.358 71.3796 176.653 71.3796 172.124C71.3796 167.595 68.5884 163.478 64.9996 161.419C65.3984 155.243 64.9996 148.671 64.9996 144.171L151.129 170.889C154.718 172.124 161.896 173.359 169.871 170.889L281.122 135.48C290.293 132.598 290.293 119.835 281.122 116.952ZM169.871 141.656C158.706 144.95 94.507 143.303 89.722 141.656L84.1396 192.65C84.1396 207.472 118.033 219 160.699 219C202.967 219 237.259 207.472 237.259 192.65L227.792 135.48L169.871 141.656Z" fill="#FDFEFF"/>
</g>
</svg>
