<svg width="320" height="319" viewBox="0 0 320 319" fill="none" xmlns="http://www.w3.org/2000/svg">
<g id="key health">
<g id="key health_2">
<ellipse id="Ellipse 4.3" cx="160" cy="159.5" rx="160" ry="159.5" fill="#0049B3"/>
<g id="hospital">
<path fill-rule="evenodd" clip-rule="evenodd" d="M241.429 277L241.857 92.3571C241.857 86.9018 237.192 82.2857 231.679 82.2857H194.357V52.0714C194.357 46.6161 189.692 42 184.179 42H136.679C130.741 42 126.5 46.6161 126.5 52.0714V82.2857H89.1786C83.2411 82.2857 79 86.9018 79 92.3571V277H127.857V241.179C127.857 238.661 129.978 236.143 132.946 236.143H185.911C188.455 236.143 191 238.661 191 241.179V277H241.429ZM174.143 127.607C174.143 125.089 171.598 122.571 169.054 122.571H152.089C149.121 122.571 147 125.089 147 127.607V144.393C147 147.33 149.121 149.429 152.089 149.429H169.054C171.598 149.429 174.143 147.33 174.143 144.393V127.607ZM99.7143 144.393C99.7143 147.33 101.835 149.429 104.804 149.429H121.768C124.313 149.429 126.857 147.33 126.857 144.393V127.607C126.857 125.089 124.313 122.571 121.768 122.571H104.804C101.835 122.571 99.7143 125.089 99.7143 127.607V144.393ZM174.143 167.893C174.143 165.375 171.598 162.857 169.054 162.857H152.089C149.121 162.857 147 165.375 147 167.893V184.679C147 187.616 149.121 189.714 152.089 189.714H169.054C171.598 189.714 174.143 187.616 174.143 184.679V167.893ZM126.857 184.679V167.893C126.857 165.375 124.313 162.857 121.768 162.857H104.804C101.835 162.857 99.7143 165.375 99.7143 167.893V184.679C99.7143 187.616 101.835 189.714 104.804 189.714H121.768C124.313 189.714 126.857 187.616 126.857 184.679ZM140.071 79.7679C140.071 81.4464 140.92 82.2857 142.616 82.2857H153.643V93.1964C153.643 94.875 154.491 95.7143 156.188 95.7143H164.67C165.942 95.7143 167.214 94.875 167.214 93.1964V82.2857H178.241C179.513 82.2857 180.786 81.4464 180.786 79.7679V71.375C180.786 70.1161 179.513 68.8571 178.241 68.8571H167.214V57.9464C167.214 56.6875 165.942 55.4286 164.67 55.4286H156.188C154.491 55.4286 153.643 56.6875 153.643 57.9464V68.8571H142.616C140.92 68.8571 140.071 70.1161 140.071 71.375V79.7679ZM221.143 127.607C221.143 125.089 218.598 122.571 216.054 122.571H199.089C196.121 122.571 194 125.089 194 127.607V144.393C194 147.33 196.121 149.429 199.089 149.429H216.054C218.598 149.429 221.143 147.33 221.143 144.393V127.607ZM221.143 167.893C221.143 165.375 218.598 162.857 216.054 162.857H199.089C196.121 162.857 194 165.375 194 167.893V184.679C194 187.616 196.121 189.714 199.089 189.714H216.054C218.598 189.714 221.143 187.616 221.143 184.679V167.893Z" fill="#9B7474"/>
<path fill-rule="evenodd" clip-rule="evenodd" d="M241.429 277L241.857 92.3571C241.857 86.9018 237.192 82.2857 231.679 82.2857H194.357V52.0714C194.357 46.6161 189.692 42 184.179 42H136.679C130.741 42 126.5 46.6161 126.5 52.0714V82.2857H89.1786C83.2411 82.2857 79 86.9018 79 92.3571V277H127.857V241.179C127.857 238.661 129.978 236.143 132.946 236.143H185.911C188.455 236.143 191 238.661 191 241.179V277H241.429ZM174.143 127.607C174.143 125.089 171.598 122.571 169.054 122.571H152.089C149.121 122.571 147 125.089 147 127.607V144.393C147 147.33 149.121 149.429 152.089 149.429H169.054C171.598 149.429 174.143 147.33 174.143 144.393V127.607ZM99.7143 144.393C99.7143 147.33 101.835 149.429 104.804 149.429H121.768C124.313 149.429 126.857 147.33 126.857 144.393V127.607C126.857 125.089 124.313 122.571 121.768 122.571H104.804C101.835 122.571 99.7143 125.089 99.7143 127.607V144.393ZM174.143 167.893C174.143 165.375 171.598 162.857 169.054 162.857H152.089C149.121 162.857 147 165.375 147 167.893V184.679C147 187.616 149.121 189.714 152.089 189.714H169.054C171.598 189.714 174.143 187.616 174.143 184.679V167.893ZM126.857 184.679V167.893C126.857 165.375 124.313 162.857 121.768 162.857H104.804C101.835 162.857 99.7143 165.375 99.7143 167.893V184.679C99.7143 187.616 101.835 189.714 104.804 189.714H121.768C124.313 189.714 126.857 187.616 126.857 184.679ZM140.071 79.7679C140.071 81.4464 140.92 82.2857 142.616 82.2857H153.643V93.1964C153.643 94.875 154.491 95.7143 156.188 95.7143H164.67C165.942 95.7143 167.214 94.875 167.214 93.1964V82.2857H178.241C179.513 82.2857 180.786 81.4464 180.786 79.7679V71.375C180.786 70.1161 179.513 68.8571 178.241 68.8571H167.214V57.9464C167.214 56.6875 165.942 55.4286 164.67 55.4286H156.188C154.491 55.4286 153.643 56.6875 153.643 57.9464V68.8571H142.616C140.92 68.8571 140.071 70.1161 140.071 71.375V79.7679ZM221.143 127.607C221.143 125.089 218.598 122.571 216.054 122.571H199.089C196.121 122.571 194 125.089 194 127.607V144.393C194 147.33 196.121 149.429 199.089 149.429H216.054C218.598 149.429 221.143 147.33 221.143 144.393V127.607ZM221.143 167.893C221.143 165.375 218.598 162.857 216.054 162.857H199.089C196.121 162.857 194 165.375 194 167.893V184.679C194 187.616 196.121 189.714 199.089 189.714H216.054C218.598 189.714 221.143 187.616 221.143 184.679V167.893Z" fill="#9B7474"/>
<path fill-rule="evenodd" clip-rule="evenodd" d="M241.429 277L241.857 92.3571C241.857 86.9018 237.192 82.2857 231.679 82.2857H194.357V52.0714C194.357 46.6161 189.692 42 184.179 42H136.679C130.741 42 126.5 46.6161 126.5 52.0714V82.2857H89.1786C83.2411 82.2857 79 86.9018 79 92.3571V277H127.857V241.179C127.857 238.661 129.978 236.143 132.946 236.143H185.911C188.455 236.143 191 238.661 191 241.179V277H241.429ZM174.143 127.607C174.143 125.089 171.598 122.571 169.054 122.571H152.089C149.121 122.571 147 125.089 147 127.607V144.393C147 147.33 149.121 149.429 152.089 149.429H169.054C171.598 149.429 174.143 147.33 174.143 144.393V127.607ZM99.7143 144.393C99.7143 147.33 101.835 149.429 104.804 149.429H121.768C124.313 149.429 126.857 147.33 126.857 144.393V127.607C126.857 125.089 124.313 122.571 121.768 122.571H104.804C101.835 122.571 99.7143 125.089 99.7143 127.607V144.393ZM174.143 167.893C174.143 165.375 171.598 162.857 169.054 162.857H152.089C149.121 162.857 147 165.375 147 167.893V184.679C147 187.616 149.121 189.714 152.089 189.714H169.054C171.598 189.714 174.143 187.616 174.143 184.679V167.893ZM126.857 184.679V167.893C126.857 165.375 124.313 162.857 121.768 162.857H104.804C101.835 162.857 99.7143 165.375 99.7143 167.893V184.679C99.7143 187.616 101.835 189.714 104.804 189.714H121.768C124.313 189.714 126.857 187.616 126.857 184.679ZM140.071 79.7679C140.071 81.4464 140.92 82.2857 142.616 82.2857H153.643V93.1964C153.643 94.875 154.491 95.7143 156.188 95.7143H164.67C165.942 95.7143 167.214 94.875 167.214 93.1964V82.2857H178.241C179.513 82.2857 180.786 81.4464 180.786 79.7679V71.375C180.786 70.1161 179.513 68.8571 178.241 68.8571H167.214V57.9464C167.214 56.6875 165.942 55.4286 164.67 55.4286H156.188C154.491 55.4286 153.643 56.6875 153.643 57.9464V68.8571H142.616C140.92 68.8571 140.071 70.1161 140.071 71.375V79.7679ZM221.143 127.607C221.143 125.089 218.598 122.571 216.054 122.571H199.089C196.121 122.571 194 125.089 194 127.607V144.393C194 147.33 196.121 149.429 199.089 149.429H216.054C218.598 149.429 221.143 147.33 221.143 144.393V127.607ZM221.143 167.893C221.143 165.375 218.598 162.857 216.054 162.857H199.089C196.121 162.857 194 165.375 194 167.893V184.679C194 187.616 196.121 189.714 199.089 189.714H216.054C218.598 189.714 221.143 187.616 221.143 184.679V167.893Z" fill="#9B7474"/>
<path fill-rule="evenodd" clip-rule="evenodd" d="M241.429 277L241.857 92.3571C241.857 86.9018 237.192 82.2857 231.679 82.2857H194.357V52.0714C194.357 46.6161 189.692 42 184.179 42H136.679C130.741 42 126.5 46.6161 126.5 52.0714V82.2857H89.1786C83.2411 82.2857 79 86.9018 79 92.3571V277H127.857V241.179C127.857 238.661 129.978 236.143 132.946 236.143H185.911C188.455 236.143 191 238.661 191 241.179V277H241.429ZM174.143 127.607C174.143 125.089 171.598 122.571 169.054 122.571H152.089C149.121 122.571 147 125.089 147 127.607V144.393C147 147.33 149.121 149.429 152.089 149.429H169.054C171.598 149.429 174.143 147.33 174.143 144.393V127.607ZM99.7143 144.393C99.7143 147.33 101.835 149.429 104.804 149.429H121.768C124.313 149.429 126.857 147.33 126.857 144.393V127.607C126.857 125.089 124.313 122.571 121.768 122.571H104.804C101.835 122.571 99.7143 125.089 99.7143 127.607V144.393ZM174.143 167.893C174.143 165.375 171.598 162.857 169.054 162.857H152.089C149.121 162.857 147 165.375 147 167.893V184.679C147 187.616 149.121 189.714 152.089 189.714H169.054C171.598 189.714 174.143 187.616 174.143 184.679V167.893ZM126.857 184.679V167.893C126.857 165.375 124.313 162.857 121.768 162.857H104.804C101.835 162.857 99.7143 165.375 99.7143 167.893V184.679C99.7143 187.616 101.835 189.714 104.804 189.714H121.768C124.313 189.714 126.857 187.616 126.857 184.679ZM140.071 79.7679C140.071 81.4464 140.92 82.2857 142.616 82.2857H153.643V93.1964C153.643 94.875 154.491 95.7143 156.188 95.7143H164.67C165.942 95.7143 167.214 94.875 167.214 93.1964V82.2857H178.241C179.513 82.2857 180.786 81.4464 180.786 79.7679V71.375C180.786 70.1161 179.513 68.8571 178.241 68.8571H167.214V57.9464C167.214 56.6875 165.942 55.4286 164.67 55.4286H156.188C154.491 55.4286 153.643 56.6875 153.643 57.9464V68.8571H142.616C140.92 68.8571 140.071 70.1161 140.071 71.375V79.7679ZM221.143 127.607C221.143 125.089 218.598 122.571 216.054 122.571H199.089C196.121 122.571 194 125.089 194 127.607V144.393C194 147.33 196.121 149.429 199.089 149.429H216.054C218.598 149.429 221.143 147.33 221.143 144.393V127.607ZM221.143 167.893C221.143 165.375 218.598 162.857 216.054 162.857H199.089C196.121 162.857 194 165.375 194 167.893V184.679C194 187.616 196.121 189.714 199.089 189.714H216.054C218.598 189.714 221.143 187.616 221.143 184.679V167.893Z" fill="#FFFDFD"/>
</g>
</g>
</g>
</svg>
