<svg width="320" height="319" viewBox="0 0 320 319" fill="none" xmlns="http://www.w3.org/2000/svg">
<g id="key food_cash">
<ellipse id="Ellipse 4.17" cx="160" cy="159.5" rx="160" ry="159.5" fill="#C2530E"/>
<path id="money-bill-wave" d="M255.973 94.4442C243.603 89.2656 231.233 87 218.862 87C179.848 87 140.834 107.391 101.82 107.391C91.9875 107.391 82.1547 106.096 72.3219 102.859C71.3703 102.536 70.1016 102.212 69.15 102.212C63.7578 102.212 59 106.743 59 112.569V215.493C59 219.377 61.2203 223.261 64.7094 224.879C77.0797 230.058 89.45 232 101.82 232C140.834 232 179.848 211.933 218.862 211.933C228.695 211.933 238.528 213.228 248.361 216.464C249.312 216.788 250.581 216.788 251.533 216.788C256.925 216.788 262 212.58 262 206.754V103.83C262 99.9464 259.462 96.0625 255.973 94.4442ZM74.225 119.69C80.5687 121.308 87.2297 121.955 93.8906 122.603C91.9875 131.989 84.0578 139.109 74.225 139.109V119.69ZM74.225 211.933V196.397C85.0094 196.397 93.8906 205.136 94.2078 216.141C87.2297 215.817 80.5687 214.199 74.225 211.933ZM160.5 190.571C146.227 190.571 135.125 176.978 135.125 159.5C135.125 142.346 146.227 128.429 160.5 128.429C174.456 128.429 185.875 142.346 185.875 159.5C185.875 176.978 174.456 190.571 160.5 190.571ZM246.775 199.634C241.066 198.339 235.356 197.368 229.33 197.045C231.233 188.629 238.211 182.156 246.775 181.185V199.634ZM246.775 123.25C236.942 121.955 229.33 113.54 229.012 103.507C235.039 104.154 241.066 105.449 246.775 107.391V123.25Z" fill="white"/>
</g>
</svg>
