<svg width="320" height="319" viewBox="0 0 320 319" fill="none" xmlns="http://www.w3.org/2000/svg">
<g id="key legal">
<g id="Group 51">
<ellipse id="Ellipse 4.19" cx="160" cy="159.5" rx="160" ry="159.5" fill="#0049B3"/>
<path id="balance-scale" d="M136.403 179.409H136.034C136.034 173.961 136.771 176.685 104.691 117.778C98.4222 105.86 79.6163 105.86 73.3477 117.778C40.8983 177.026 42.0045 174.302 42.0045 179.409C42.0045 194.732 63.0229 206.65 89.2036 206.65C115.016 206.65 136.403 194.732 136.403 179.409ZM89.2036 124.929L115.753 173.961H62.6541L89.2036 124.929ZM277.631 179.409C277.631 173.961 278.369 176.685 246.288 117.778C240.019 105.86 221.214 105.86 214.945 117.778C182.496 177.026 183.602 174.302 183.602 179.409C183.602 194.732 204.62 206.65 230.801 206.65C256.613 206.65 278 194.732 278 179.409H277.631ZM204.251 173.961L230.801 124.929L257.35 173.961H204.251ZM236.701 217.546H171.802V117.438C180.283 113.692 186.92 106.541 188.764 97.6884H236.701C239.651 97.6884 242.601 95.3048 242.601 92.2403V81.3442C242.601 78.6202 239.651 75.8961 236.701 75.8961H183.233C178.071 69.4265 169.59 65 160.002 65C150.046 65 141.565 69.4265 136.403 75.8961H83.3037C79.985 75.8961 77.4038 78.6202 77.4038 81.3442V92.2403C77.4038 95.3048 79.985 97.6884 83.3037 97.6884H130.872C132.715 106.541 139.353 113.692 148.202 117.438V217.546H83.3037C79.985 217.546 77.4038 220.27 77.4038 222.994V240.552C77.4038 243.616 79.985 246 83.3037 246H236.701C239.651 246 242.601 243.616 242.601 240.552V222.994C242.601 220.27 239.651 217.546 236.701 217.546Z" fill="#FFFDFD"/>
</g>
</g>
</svg>
