<svg width="320" height="319" viewBox="0 0 320 319" fill="none" xmlns="http://www.w3.org/2000/svg">
<g id="key resettlement">
<g id="Group 52">
<ellipse id="Ellipse 4.18" cx="160" cy="159.5" rx="160" ry="159.5" fill="#0072B3"/>
<path id="landmark" d="M255.725 83.9886L164.775 48.1932C163.609 47.3977 161.666 47 160.5 47C158.945 47 157.002 47.3977 155.836 48.1932L64.8867 83.9886C62.5547 84.7841 61 87.1705 61 89.9545V104.273C61 107.852 63.7207 110.636 67.2188 110.636H253.781C256.891 110.636 260 107.852 260 104.273V89.9545C260 87.1705 258.057 84.7841 255.725 83.9886ZM85.875 123.364V187H79.6562C76.1582 187 73.4375 190.182 73.4375 193.364V212.455H247.562V193.364C247.562 190.182 244.453 187 241.344 187H235.125V123.364H210.25V187H172.938V123.364H148.062V187H110.75V123.364H85.875ZM253.781 225.182H67.2188C63.7207 225.182 61 228.364 61 231.545L61 250.636C61 254.216 63.7207 257 67.2188 257H253.781C256.891 257 260 254.216 260 250.636V231.545C260 228.364 256.891 225.182 253.781 225.182Z" fill="#FFFDFD"/>
</g>
</g>
</svg>
