<svg width="191" height="64" viewBox="0 0 191 64" fill="none" xmlns="http://www.w3.org/2000/svg">
<rect width="191" height="64" fill="#0072B3"/>
<path d="M22.7745 34.1082C22.7921 34.0813 22.8091 34.0553 22.8255 34.0301C23.1599 34.048 23.6307 34.0728 24.2202 34.103C25.4813 34.1676 27.2858 34.2571 29.4606 34.3566C33.8095 34.5554 39.6412 34.7941 45.5683 34.9533C51.4921 35.1123 57.5251 35.1924 62.2716 35.0725C64.6422 35.0126 66.7129 34.9025 68.2964 34.7238C69.0864 34.6347 69.7788 34.526 70.3366 34.3911C70.4475 34.3642 70.561 34.3347 70.6745 34.3015L79.443 51.9491C78.8021 51.9965 77.9657 52.0577 76.9589 52.13C74.444 52.3107 70.8659 52.5608 66.6135 52.8388C58.1077 53.3948 46.9086 54.0618 36.1269 54.5064C25.3347 54.9514 14.9968 55.1718 8.19682 54.8405C6.49926 54.7578 5.03627 54.6412 3.84971 54.4877C2.69841 54.3388 1.86367 54.1616 1.33693 53.9717C1.45318 53.8956 1.59652 53.8104 1.77127 53.7167C8.55311 50.0815 13.8927 45.0311 17.5284 40.909C19.349 38.8449 20.7494 37.0054 21.6965 35.6791C22.1702 35.0157 22.5309 34.4801 22.7745 34.1082ZM0.950449 54.288C0.950382 54.288 0.951102 54.2868 0.952806 54.2845C0.951368 54.2868 0.950515 54.288 0.950449 54.288Z" fill="#F9F2FF" stroke="black" stroke-width="2"/>
<path d="M190.46 50.1523C191.097 49.622 191.183 48.6761 190.652 48.0397C190.122 47.4033 189.176 47.3173 188.54 47.8477L190.46 50.1523ZM169.5 54.5L169.768 53.0242L168.875 53.1364L169.5 54.5ZM157.5 60L157.266 61.4816L158.125 61.3636L157.5 60ZM134 56.5L134.212 55.0151L133.289 55.1793L134 56.5ZM127.5 60V61.5L128.211 61.3207L127.5 60ZM121.5 60L121.036 61.4263L121.5 61.5V60ZM86 54.5L86.1493 55.9926L86.1598 55.9915L86 54.5ZM70 53.5C69.1716 53.5 68.5 54.1716 68.5 55C68.5 55.8284 69.1716 56.5 70 56.5V53.5ZM148 58.5L148.234 57.0184L148.212 57.0151L148 58.5ZM180.5 56.5L180.232 57.9758L181.46 57.6523L180.5 56.5ZM81 55V56.5L81.1493 56.4926L81 55ZM100 53L100.464 51.5737L99.8402 51.5085L100 53ZM70 56.5H71.375V53.5H70V56.5ZM74.125 56.5H76.875V53.5H74.125V56.5ZM79.625 56.5H81V53.5H79.625V56.5ZM81.1493 56.4926L82.3993 56.3676L82.1007 53.3824L80.8507 53.5074L81.1493 56.4926ZM84.8993 56.1176L86.1493 55.9926L85.8507 53.0074L84.6007 53.1324L84.8993 56.1176ZM86.1598 55.9915L87.9098 55.804L87.5902 52.821L85.8402 53.0085L86.1598 55.9915ZM91.4098 55.429L94.9098 55.054L94.5902 52.071L91.0902 52.446L91.4098 55.429ZM98.4098 54.679L100.16 54.4915L99.8402 51.5085L98.0902 51.696L98.4098 54.679ZM99.5356 54.4263L100.879 54.8638L101.808 52.0112L100.464 51.5737L99.5356 54.4263ZM103.567 55.7388L106.254 56.6138L107.183 53.7612L104.496 52.8862L103.567 55.7388ZM108.942 57.4888L111.629 58.3638L112.558 55.5112L109.871 54.6362L108.942 57.4888ZM114.317 59.2388L117.004 60.1138L117.933 57.2612L115.246 56.3862L114.317 59.2388ZM119.692 60.9888L121.036 61.4263L121.964 58.5737L120.621 58.1362L119.692 60.9888ZM121.5 61.5H123V58.5H121.5V61.5ZM126 61.5H127.5V58.5H126V61.5ZM128.211 61.3207L129.836 60.4457L128.414 57.8043L126.789 58.6793L128.211 61.3207ZM133.086 58.6957L134.711 57.8207L133.289 55.1793L131.664 56.0543L133.086 58.6957ZM133.788 57.9849L135.538 58.2349L135.962 55.2651L134.212 55.0151L133.788 57.9849ZM139.038 58.7349L142.538 59.2349L142.962 56.2651L139.462 55.7651L139.038 58.7349ZM146.038 59.7349L147.788 59.9849L148.212 57.0151L146.462 56.7651L146.038 59.7349ZM147.766 59.9816L148.954 60.1691L149.421 57.2059L148.234 57.0184L147.766 59.9816ZM151.329 60.5441L153.704 60.9191L154.171 57.9559L151.796 57.5809L151.329 60.5441ZM156.079 61.2941L157.266 61.4816L157.734 58.5184L156.546 58.3309L156.079 61.2941ZM158.125 61.3636L159.625 60.6761L158.375 57.9489L156.875 58.6364L158.125 61.3636ZM162.625 59.3011L165.625 57.9261L164.375 55.1989L161.375 56.5739L162.625 59.3011ZM168.625 56.5511L170.125 55.8636L168.875 53.1364L167.375 53.8239L168.625 56.5511ZM169.232 55.9758L170.607 56.2258L171.143 53.2742L169.768 53.0242L169.232 55.9758ZM173.357 56.7258L176.107 57.2258L176.643 54.2742L173.893 53.7742L173.357 56.7258ZM178.857 57.7258L180.232 57.9758L180.768 55.0242L179.393 54.7742L178.857 57.7258ZM181.46 57.6523L182.585 56.7148L180.665 54.4102L179.54 55.3477L181.46 57.6523ZM184.835 54.8398L187.085 52.9648L185.165 50.6602L182.915 52.5352L184.835 54.8398ZM189.335 51.0898L190.46 50.1523L188.54 47.8477L187.415 48.7852L189.335 51.0898Z" fill="#F9F2FF"/>
<path d="M67.9008 52.0207C68.4645 52.6277 69.4136 52.6629 70.0207 52.0992C70.6277 51.5355 70.6629 50.5864 70.0992 49.9793L67.9008 52.0207ZM56 37L57.0992 35.9793L54.5265 36.7193L56 37ZM54 47.5L54.1493 48.9926L55.4735 47.7807L54 47.5ZM39 49L38.8507 47.5074L38.7317 47.5242L39 49ZM41 45C41.8284 45 42.5 44.3284 42.5 43.5C42.5 42.6716 41.8284 42 41 42V45ZM28 51L26.7519 51.8321L28.2683 52.4758L28 51ZM23 43.5V42L21.7519 44.3321L23 43.5ZM41 42H39.5V45H41V42ZM36.5 42H33.5V45H36.5V42ZM30.5 42H27.5V45H30.5V42ZM24.5 42H23V45H24.5V42ZM21.7519 44.3321L22.3769 45.2696L24.8731 43.6054L24.2481 42.6679L21.7519 44.3321ZM23.6269 47.1446L24.8769 49.0196L27.3731 47.3554L26.1231 45.4804L23.6269 47.1446ZM26.1269 50.8946L26.7519 51.8321L29.2481 50.1679L28.6231 49.2304L26.1269 50.8946ZM28.2683 52.4758L29.6433 52.2258L29.1067 49.2742L27.7317 49.5242L28.2683 52.4758ZM32.3933 51.7258L35.1433 51.2258L34.6067 48.2742L31.8567 48.7742L32.3933 51.7258ZM37.8933 50.7258L39.2683 50.4758L38.7317 47.5242L37.3567 47.7742L37.8933 50.7258ZM39.1493 50.4926L40.3993 50.3676L40.1007 47.3824L38.8507 47.5074L39.1493 50.4926ZM42.8993 50.1176L45.3993 49.8676L45.1007 46.8824L42.6007 47.1324L42.8993 50.1176ZM47.8993 49.6176L50.3993 49.3676L50.1007 46.3824L47.6007 46.6324L47.8993 49.6176ZM52.8993 49.1176L54.1493 48.9926L53.8507 46.0074L52.6007 46.1324L52.8993 49.1176ZM55.4735 47.7807L55.7235 46.4682L52.7765 45.9068L52.5265 47.2193L55.4735 47.7807ZM56.2235 43.8432L56.7235 41.2182L53.7765 40.6568L53.2765 43.2818L56.2235 43.8432ZM57.2235 38.5932L57.4735 37.2807L54.5265 36.7193L54.2765 38.0318L57.2235 38.5932ZM54.9008 38.0207L55.9841 39.1873L58.1825 37.146L57.0992 35.9793L54.9008 38.0207ZM58.1508 41.5207L60.3175 43.854L62.5159 41.8127L60.3492 39.4793L58.1508 41.5207ZM62.4841 46.1873L64.6508 48.5207L66.8492 46.4793L64.6825 44.146L62.4841 46.1873ZM66.8175 50.854L67.9008 52.0207L70.0992 49.9793L69.0159 48.8127L66.8175 50.854Z" fill="#8C45CF"/>
<path fill-rule="evenodd" clip-rule="evenodd" d="M43.0843 40.7368C42.1824 42.1104 41.4461 43.2318 41 44C38.3049 39.9055 28 24.0452 28 16.9134C28 9.78152 33.8203 4 41 4C48.1797 4 54 9.78152 54 16.9134C54 24.1109 46.9896 34.7884 43.0843 40.7368Z" fill="#F24A4A"/>
<path d="M92.9521 36.616C92.8774 36.5413 92.7387 36.44 92.5361 36.312C92.3441 36.184 92.1041 36.0613 91.8161 35.944C91.5387 35.816 91.2347 35.7093 90.9041 35.624C90.5734 35.5387 90.2374 35.496 89.8961 35.496C89.2881 35.496 88.8347 35.608 88.5361 35.832C88.2374 36.056 88.0881 36.3707 88.0881 36.776C88.0881 37.0107 88.1414 37.208 88.2481 37.368C88.3654 37.5173 88.5307 37.6507 88.7441 37.768C88.9574 37.8853 89.2241 37.992 89.5441 38.088C89.8747 38.184 90.2534 38.2853 90.6801 38.392C91.2347 38.5413 91.7361 38.7013 92.1841 38.872C92.6427 39.0427 93.0267 39.256 93.3361 39.512C93.6561 39.768 93.9014 40.0773 94.0721 40.44C94.2427 40.792 94.3281 41.2293 94.3281 41.752C94.3281 42.36 94.2107 42.8827 93.9761 43.32C93.7521 43.7467 93.4427 44.0933 93.0481 44.36C92.6641 44.6267 92.2161 44.824 91.7041 44.952C91.2027 45.0693 90.6747 45.128 90.1201 45.128C89.2667 45.128 88.4241 45 87.5921 44.744C86.7601 44.488 86.0134 44.1253 85.3521 43.656L86.3281 41.752C86.4241 41.848 86.5947 41.976 86.8401 42.136C87.0961 42.2853 87.3947 42.44 87.7361 42.6C88.0774 42.7493 88.4561 42.8773 88.8721 42.984C89.2881 43.0907 89.7147 43.144 90.1521 43.144C91.3681 43.144 91.9761 42.7547 91.9761 41.976C91.9761 41.7307 91.9067 41.5227 91.7681 41.352C91.6294 41.1813 91.4321 41.032 91.1761 40.904C90.9201 40.776 90.6107 40.6587 90.2481 40.552C89.8854 40.4453 89.4801 40.328 89.0321 40.2C88.4881 40.0507 88.0134 39.8907 87.6081 39.72C87.2134 39.5387 86.8827 39.3307 86.6161 39.096C86.3494 38.8507 86.1467 38.5733 86.0081 38.264C85.8801 37.944 85.8161 37.5653 85.8161 37.128C85.8161 36.552 85.9227 36.04 86.1361 35.592C86.3494 35.144 86.6427 34.7707 87.0161 34.472C87.4001 34.1733 87.8427 33.9493 88.3441 33.8C88.8454 33.64 89.3841 33.56 89.9601 33.56C90.7601 33.56 91.4961 33.688 92.1681 33.944C92.8401 34.1893 93.4267 34.4827 93.9281 34.824L92.9521 36.616Z" fill="white"/>
<path d="M99.6766 45.16C99.0046 45.16 98.3966 45.048 97.8526 44.824C97.3086 44.5893 96.8446 44.2747 96.4606 43.88C96.0766 43.4853 95.7779 43.0267 95.5646 42.504C95.3619 41.9813 95.2606 41.432 95.2606 40.856C95.2606 40.2587 95.3619 39.6987 95.5646 39.176C95.7672 38.6427 96.0606 38.1787 96.4446 37.784C96.8286 37.3787 97.2926 37.0587 97.8366 36.824C98.3912 36.5893 99.0099 36.472 99.6926 36.472C100.375 36.472 100.983 36.5893 101.517 36.824C102.061 37.0587 102.519 37.3733 102.893 37.768C103.277 38.1627 103.565 38.6213 103.757 39.144C103.959 39.6667 104.061 40.2107 104.061 40.776C104.061 40.9147 104.055 41.048 104.045 41.176C104.045 41.304 104.034 41.4107 104.013 41.496H97.5326C97.5646 41.8267 97.6446 42.12 97.7726 42.376C97.9006 42.632 98.0659 42.8507 98.2686 43.032C98.4712 43.2133 98.7006 43.352 98.9566 43.448C99.2126 43.544 99.4792 43.592 99.7566 43.592C100.183 43.592 100.583 43.4907 100.957 43.288C101.341 43.0747 101.602 42.7973 101.741 42.456L103.581 42.968C103.271 43.608 102.775 44.136 102.093 44.552C101.421 44.9573 100.615 45.16 99.6766 45.16ZM101.853 40.104C101.799 39.4747 101.565 38.9733 101.149 38.6C100.743 38.216 100.247 38.024 99.6606 38.024C99.3726 38.024 99.1006 38.0773 98.8446 38.184C98.5992 38.28 98.3806 38.4187 98.1886 38.6C97.9966 38.7813 97.8366 39 97.7086 39.256C97.5912 39.512 97.5219 39.7947 97.5006 40.104H101.853Z" fill="white"/>
<path d="M110.359 38.472C109.708 38.4827 109.127 38.6107 108.615 38.856C108.103 39.0907 107.735 39.448 107.511 39.928V45H105.367V36.616H107.335V38.408C107.484 38.12 107.66 37.864 107.863 37.64C108.065 37.4053 108.284 37.2027 108.519 37.032C108.753 36.8613 108.988 36.7333 109.223 36.648C109.468 36.552 109.703 36.504 109.927 36.504C110.044 36.504 110.129 36.504 110.183 36.504C110.247 36.504 110.305 36.5093 110.359 36.52V38.472Z" fill="white"/>
<path d="M113.81 45L110.722 36.616H112.93L115.058 43.256L117.202 36.616H119.218L116.13 45H113.81Z" fill="white"/>
<path d="M120.335 45V36.616H122.479V45H120.335ZM120.335 35.448V33.32H122.479V35.448H120.335Z" fill="white"/>
<path d="M123.886 40.808C123.886 40.2213 123.987 39.6667 124.19 39.144C124.392 38.6213 124.686 38.1627 125.07 37.768C125.454 37.3733 125.918 37.0587 126.462 36.824C127.006 36.5893 127.619 36.472 128.302 36.472C129.219 36.472 129.998 36.6693 130.638 37.064C131.288 37.4587 131.774 37.976 132.094 38.616L129.998 39.256C129.816 38.9467 129.576 38.712 129.278 38.552C128.979 38.3813 128.648 38.296 128.286 38.296C127.976 38.296 127.688 38.36 127.422 38.488C127.155 38.6053 126.92 38.776 126.718 39C126.526 39.2133 126.371 39.4747 126.254 39.784C126.147 40.0933 126.094 40.4347 126.094 40.808C126.094 41.1813 126.152 41.5227 126.27 41.832C126.387 42.1413 126.542 42.408 126.734 42.632C126.936 42.856 127.171 43.032 127.438 43.16C127.704 43.2773 127.987 43.336 128.286 43.336C128.67 43.336 129.022 43.24 129.342 43.048C129.672 42.856 129.902 42.6213 130.03 42.344L132.126 42.984C131.838 43.624 131.363 44.1467 130.702 44.552C130.04 44.9573 129.246 45.16 128.318 45.16C127.635 45.16 127.022 45.0427 126.478 44.808C125.934 44.5733 125.47 44.2587 125.086 43.864C124.702 43.4587 124.403 42.9947 124.19 42.472C123.987 41.9387 123.886 41.384 123.886 40.808Z" fill="white"/>
<path d="M137.255 45.16C136.583 45.16 135.975 45.048 135.431 44.824C134.887 44.5893 134.423 44.2747 134.039 43.88C133.655 43.4853 133.356 43.0267 133.143 42.504C132.94 41.9813 132.839 41.432 132.839 40.856C132.839 40.2587 132.94 39.6987 133.143 39.176C133.345 38.6427 133.639 38.1787 134.023 37.784C134.407 37.3787 134.871 37.0587 135.415 36.824C135.969 36.5893 136.588 36.472 137.271 36.472C137.953 36.472 138.561 36.5893 139.095 36.824C139.639 37.0587 140.097 37.3733 140.471 37.768C140.855 38.1627 141.143 38.6213 141.335 39.144C141.537 39.6667 141.639 40.2107 141.639 40.776C141.639 40.9147 141.633 41.048 141.623 41.176C141.623 41.304 141.612 41.4107 141.591 41.496H135.111C135.143 41.8267 135.223 42.12 135.351 42.376C135.479 42.632 135.644 42.8507 135.847 43.032C136.049 43.2133 136.279 43.352 136.535 43.448C136.791 43.544 137.057 43.592 137.335 43.592C137.761 43.592 138.161 43.4907 138.535 43.288C138.919 43.0747 139.18 42.7973 139.319 42.456L141.159 42.968C140.849 43.608 140.353 44.136 139.671 44.552C138.999 44.9573 138.193 45.16 137.255 45.16ZM139.431 40.104C139.377 39.4747 139.143 38.9733 138.727 38.6C138.321 38.216 137.825 38.024 137.239 38.024C136.951 38.024 136.679 38.0773 136.423 38.184C136.177 38.28 135.959 38.4187 135.767 38.6C135.575 38.7813 135.415 39 135.287 39.256C135.169 39.512 135.1 39.7947 135.079 40.104H139.431Z" fill="white"/>
<path d="M156.151 45V37.48L153.223 43.08H152.023L149.095 37.48V45H146.887V33.64H149.255L152.615 40.104L156.007 33.64H158.359V45H156.151Z" fill="white"/>
<path d="M162.733 45.16C162.327 45.16 161.949 45.096 161.597 44.968C161.245 44.8293 160.941 44.6427 160.685 44.408C160.429 44.1627 160.226 43.88 160.077 43.56C159.938 43.24 159.869 42.888 159.869 42.504C159.869 42.1093 159.954 41.7467 160.125 41.416C160.306 41.0747 160.551 40.7867 160.861 40.552C161.181 40.3173 161.559 40.136 161.997 40.008C162.434 39.8693 162.914 39.8 163.437 39.8C163.81 39.8 164.173 39.832 164.525 39.896C164.887 39.96 165.207 40.0507 165.485 40.168V39.688C165.485 39.1333 165.325 38.7067 165.005 38.408C164.695 38.1093 164.231 37.96 163.613 37.96C163.165 37.96 162.727 38.04 162.301 38.2C161.874 38.36 161.437 38.5947 160.989 38.904L160.333 37.544C161.41 36.8293 162.573 36.472 163.821 36.472C165.026 36.472 165.959 36.7707 166.621 37.368C167.293 37.9547 167.629 38.808 167.629 39.928V42.536C167.629 42.76 167.666 42.92 167.741 43.016C167.826 43.112 167.959 43.1653 168.141 43.176V45C167.778 45.0747 167.463 45.112 167.197 45.112C166.791 45.112 166.477 45.0213 166.253 44.84C166.039 44.6587 165.906 44.4187 165.853 44.12L165.805 43.656C165.431 44.1467 164.978 44.52 164.445 44.776C163.911 45.032 163.341 45.16 162.733 45.16ZM163.341 43.592C163.703 43.592 164.045 43.528 164.365 43.4C164.695 43.272 164.951 43.1013 165.133 42.888C165.367 42.7067 165.485 42.504 165.485 42.28V41.32C165.229 41.224 164.951 41.1493 164.653 41.096C164.354 41.032 164.066 41 163.789 41C163.234 41 162.781 41.128 162.429 41.384C162.077 41.6293 161.901 41.944 161.901 42.328C161.901 42.6907 162.039 42.9947 162.317 43.24C162.594 43.4747 162.935 43.592 163.341 43.592Z" fill="white"/>
<path d="M174.656 45.16C173.995 45.16 173.419 45.016 172.928 44.728C172.438 44.4293 172.054 44.0293 171.776 43.528V48.408H169.632V36.616H171.504V38.056C171.814 37.5653 172.214 37.1813 172.704 36.904C173.195 36.616 173.76 36.472 174.4 36.472C174.966 36.472 175.488 36.5893 175.968 36.824C176.448 37.048 176.859 37.3573 177.2 37.752C177.552 38.136 177.824 38.5947 178.016 39.128C178.219 39.6507 178.32 40.2053 178.32 40.792C178.32 41.4 178.23 41.9707 178.048 42.504C177.867 43.0373 177.611 43.5013 177.28 43.896C176.96 44.2907 176.576 44.6 176.128 44.824C175.68 45.048 175.19 45.16 174.656 45.16ZM173.936 43.336C174.256 43.336 174.55 43.2667 174.816 43.128C175.094 42.9893 175.328 42.8027 175.52 42.568C175.712 42.3333 175.862 42.0613 175.968 41.752C176.075 41.4427 176.128 41.1227 176.128 40.792C176.128 40.44 176.07 40.1147 175.952 39.816C175.835 39.5067 175.67 39.24 175.456 39.016C175.254 38.792 175.008 38.616 174.72 38.488C174.443 38.36 174.139 38.296 173.808 38.296C173.606 38.296 173.398 38.3333 173.184 38.408C172.971 38.472 172.774 38.568 172.592 38.696C172.411 38.824 172.246 38.9733 172.096 39.144C171.958 39.3147 171.851 39.5013 171.776 39.704V41.672C171.968 42.152 172.262 42.552 172.656 42.872C173.051 43.1813 173.478 43.336 173.936 43.336Z" fill="white"/>
<path d="M87.6719 28V16.72L83.2799 25.12H81.4799L77.0879 16.72V28H73.7759V10.96H77.3279L82.3679 20.656L87.4559 10.96H90.9839V28H87.6719Z" fill="white"/>
<path d="M94.2295 28V15.424H97.4455V28H94.2295ZM94.2295 13.672V10.48H97.4455V13.672H94.2295Z" fill="white"/>
<path d="M105.267 28.072C104.419 28.072 103.651 27.904 102.963 27.568C102.275 27.232 101.675 26.776 101.163 26.2C100.667 25.608 100.283 24.928 100.011 24.16C99.7387 23.392 99.6027 22.576 99.6027 21.712C99.6027 20.8 99.7467 19.952 100.035 19.168C100.323 18.384 100.723 17.696 101.235 17.104C101.747 16.512 102.363 16.048 103.083 15.712C103.803 15.376 104.595 15.208 105.459 15.208C106.435 15.208 107.291 15.432 108.027 15.88C108.763 16.312 109.371 16.896 109.851 17.632V15.424H112.659V27.4C112.659 28.328 112.483 29.16 112.131 29.896C111.779 30.632 111.291 31.256 110.667 31.768C110.059 32.28 109.323 32.672 108.459 32.944C107.611 33.216 106.683 33.352 105.675 33.352C104.299 33.352 103.139 33.12 102.195 32.656C101.267 32.208 100.467 31.568 99.7947 30.736L101.547 29.032C102.027 29.624 102.627 30.088 103.347 30.424C104.083 30.76 104.859 30.928 105.675 30.928C106.171 30.928 106.643 30.856 107.091 30.712C107.555 30.584 107.963 30.376 108.315 30.088C108.667 29.8 108.939 29.432 109.131 28.984C109.339 28.536 109.443 28.008 109.443 27.4V25.816C109.027 26.536 108.443 27.096 107.691 27.496C106.939 27.88 106.131 28.072 105.267 28.072ZM106.347 25.504C106.699 25.504 107.035 25.448 107.355 25.336C107.675 25.224 107.971 25.072 108.243 24.88C108.515 24.688 108.755 24.464 108.963 24.208C109.171 23.952 109.331 23.68 109.443 23.392V20.392C109.155 19.656 108.699 19.064 108.075 18.616C107.467 18.168 106.827 17.944 106.155 17.944C105.659 17.944 105.211 18.056 104.811 18.28C104.411 18.488 104.067 18.776 103.779 19.144C103.491 19.496 103.267 19.904 103.107 20.368C102.963 20.832 102.891 21.312 102.891 21.808C102.891 22.32 102.979 22.8 103.155 23.248C103.331 23.696 103.571 24.088 103.875 24.424C104.195 24.76 104.563 25.024 104.979 25.216C105.395 25.408 105.851 25.504 106.347 25.504Z" fill="white"/>
<path d="M123.046 18.208C122.07 18.224 121.198 18.416 120.43 18.784C119.662 19.136 119.11 19.672 118.774 20.392V28H115.558V15.424H118.51V18.112C118.734 17.68 118.998 17.296 119.302 16.96C119.606 16.608 119.934 16.304 120.286 16.048C120.638 15.792 120.99 15.6 121.342 15.472C121.71 15.328 122.062 15.256 122.398 15.256C122.574 15.256 122.702 15.256 122.782 15.256C122.878 15.256 122.966 15.264 123.046 15.28V18.208Z" fill="white"/>
<path d="M128.107 28.24C127.499 28.24 126.931 28.144 126.403 27.952C125.875 27.744 125.419 27.464 125.035 27.112C124.651 26.744 124.347 26.32 124.123 25.84C123.915 25.36 123.811 24.832 123.811 24.256C123.811 23.664 123.939 23.12 124.195 22.624C124.467 22.112 124.835 21.68 125.299 21.328C125.779 20.976 126.347 20.704 127.003 20.512C127.659 20.304 128.379 20.2 129.163 20.2C129.723 20.2 130.267 20.248 130.795 20.344C131.339 20.44 131.819 20.576 132.235 20.752V20.032C132.235 19.2 131.995 18.56 131.515 18.112C131.051 17.664 130.355 17.44 129.427 17.44C128.755 17.44 128.099 17.56 127.459 17.8C126.819 18.04 126.163 18.392 125.491 18.856L124.507 16.816C126.123 15.744 127.867 15.208 129.739 15.208C131.547 15.208 132.947 15.656 133.939 16.552C134.947 17.432 135.451 18.712 135.451 20.392V24.304C135.451 24.64 135.507 24.88 135.619 25.024C135.747 25.168 135.947 25.248 136.219 25.264V28C135.675 28.112 135.203 28.168 134.803 28.168C134.195 28.168 133.723 28.032 133.387 27.76C133.067 27.488 132.867 27.128 132.787 26.68L132.715 25.984C132.155 26.72 131.475 27.28 130.675 27.664C129.875 28.048 129.019 28.24 128.107 28.24ZM129.019 25.888C129.563 25.888 130.075 25.792 130.555 25.6C131.051 25.408 131.435 25.152 131.707 24.832C132.059 24.56 132.235 24.256 132.235 23.92V22.48C131.851 22.336 131.435 22.224 130.987 22.144C130.539 22.048 130.107 22 129.691 22C128.859 22 128.179 22.192 127.651 22.576C127.123 22.944 126.859 23.416 126.859 23.992C126.859 24.536 127.067 24.992 127.483 25.36C127.899 25.712 128.411 25.888 129.019 25.888Z" fill="white"/>
<path d="M150.144 28H146.928V20.944C146.928 19.936 146.752 19.2 146.4 18.736C146.048 18.272 145.56 18.04 144.936 18.04C144.616 18.04 144.288 18.104 143.952 18.232C143.616 18.36 143.296 18.544 142.992 18.784C142.704 19.008 142.44 19.28 142.2 19.6C141.96 19.92 141.784 20.272 141.672 20.656V28H138.456V15.424H141.36V17.752C141.824 16.952 142.496 16.328 143.376 15.88C144.256 15.432 145.248 15.208 146.352 15.208C147.136 15.208 147.776 15.352 148.272 15.64C148.768 15.928 149.152 16.304 149.424 16.768C149.696 17.232 149.88 17.76 149.976 18.352C150.088 18.944 150.144 19.544 150.144 20.152V28Z" fill="white"/>
<path d="M160.359 27.352C159.927 27.544 159.399 27.736 158.775 27.928C158.151 28.12 157.495 28.216 156.807 28.216C156.359 28.216 155.935 28.16 155.535 28.048C155.151 27.936 154.807 27.76 154.503 27.52C154.215 27.264 153.983 26.944 153.807 26.56C153.631 26.16 153.543 25.68 153.543 25.12V17.896H151.887V15.424H153.543V11.344H156.759V15.424H159.399V17.896H156.759V24.04C156.759 24.488 156.871 24.808 157.095 25C157.335 25.176 157.623 25.264 157.959 25.264C158.295 25.264 158.623 25.208 158.943 25.096C159.263 24.984 159.519 24.888 159.711 24.808L160.359 27.352Z" fill="white"/>
</svg>