<svg width="364" height="564" viewBox="0 0 364 564" fill="none" xmlns="http://www.w3.org/2000/svg">
<g id="pin mental health">
<path id="Ellipse 3.24" d="M182 564C215.293 506.268 364 282.638 364 182.079C364 81.5194 282.516 0 182 0C81.4842 0 0 81.5194 0 182.079C0 282.638 144.268 506.268 182 564Z" fill="white"/>
<ellipse id="Ellipse 4.20" cx="182" cy="183.5" rx="160" ry="159.5" fill="#0072B3"/>
<path id="file-contract" d="M193.5 132.672V83H121.625C116.594 83 113 87.0176 113 91.7656V261.234C113 266.348 116.594 270 121.625 270H242.375C247.047 270 251 266.348 251 261.234V141.438H202.125C197.094 141.438 193.5 137.785 193.5 132.672ZM136 109.297C136 107.836 137.078 106.375 138.875 106.375H167.625C169.062 106.375 170.5 107.836 170.5 109.297V115.141C170.5 116.967 169.062 118.062 167.625 118.062H138.875C137.078 118.062 136 116.967 136 115.141V109.297ZM136 132.672C136 131.211 137.078 129.75 138.875 129.75H167.625C169.062 129.75 170.5 131.211 170.5 132.672V138.516C170.5 140.342 169.062 141.438 167.625 141.438H138.875C137.078 141.438 136 140.342 136 138.516V132.672ZM205 223.25H222.25C225.125 223.25 228 226.172 228 229.094C228 232.381 225.125 234.938 222.25 234.938H205C199.25 234.938 193.859 231.65 191.344 226.537C190.266 224.346 188.469 223.98 187.75 223.98C186.672 223.98 184.875 224.346 183.797 226.172L181.281 232.016C180.203 233.842 178.047 234.938 176.25 234.938C175.891 234.938 175.891 234.938 175.531 234.938C173.375 234.938 171.219 233.477 170.5 231.285L164.75 212.658L160.797 224.346C158.641 230.92 152.891 234.938 146.062 234.938H141.75C138.516 234.938 136 232.381 136 229.094C136 226.172 138.516 223.25 141.75 223.25H146.062C147.859 223.25 149.297 222.154 150.016 220.693L156.484 200.605C157.562 196.953 160.797 194.762 164.75 194.762C168.344 194.762 171.578 196.953 172.656 200.605L177.688 215.945C184.875 210.102 197.094 212.293 201.406 221.059C202.125 222.52 203.562 223.25 205 223.25ZM248.484 121.35L213.266 85.5566C211.469 84.0957 209.312 83 207.156 83H205V129.75H251V127.559C251 125.367 249.922 123.176 248.484 121.35Z" fill="#FFFDFD"/>
</g>
</svg>
