<svg width="364" height="564" viewBox="0 0 364 564" fill="none" xmlns="http://www.w3.org/2000/svg">
<g id="pin cash">
<path id="Ellipse 3.21" d="M364 182.079C364 282.638 215.293 506.268 182 564C144.268 506.268 0 282.638 0 182.079C0 81.5194 81.4842 0 182 0C282.516 0 364 81.5194 364 182.079Z" fill="white"/>
<ellipse id="Ellipse 4.17" cx="182" cy="186.5" rx="160" ry="159.5" fill="#C2530E"/>
<path id="money-bill-wave" d="M277.973 121.444C265.603 116.266 253.233 114 240.862 114C201.848 114 162.834 134.391 123.82 134.391C113.987 134.391 104.155 133.096 94.3219 129.859C93.3703 129.536 92.1016 129.212 91.15 129.212C85.7578 129.212 81 133.743 81 139.569V242.493C81 246.377 83.2203 250.261 86.7094 251.879C99.0797 257.058 111.45 259 123.82 259C162.834 259 201.848 238.933 240.862 238.933C250.695 238.933 260.528 240.228 270.361 243.464C271.312 243.788 272.581 243.788 273.533 243.788C278.925 243.788 284 239.58 284 233.754V130.83C284 126.946 281.462 123.062 277.973 121.444ZM96.225 146.69C102.569 148.308 109.23 148.955 115.891 149.603C113.987 158.989 106.058 166.109 96.225 166.109V146.69ZM96.225 238.933V223.397C107.009 223.397 115.891 232.136 116.208 243.141C109.23 242.817 102.569 241.199 96.225 238.933ZM182.5 217.571C168.227 217.571 157.125 203.978 157.125 186.5C157.125 169.346 168.227 155.429 182.5 155.429C196.456 155.429 207.875 169.346 207.875 186.5C207.875 203.978 196.456 217.571 182.5 217.571ZM268.775 226.634C263.066 225.339 257.356 224.368 251.33 224.045C253.233 215.629 260.211 209.156 268.775 208.185V226.634ZM268.775 150.25C258.942 148.955 251.33 140.54 251.012 130.507C257.039 131.154 263.066 132.449 268.775 134.391V150.25Z" fill="white"/>
</g>
</svg>
