<svg width="364" height="564" viewBox="0 0 364 564" fill="none" xmlns="http://www.w3.org/2000/svg">
<g id="pin comm ctr">
<path id="Ellipse 3.20" d="M364 182.079C364 282.638 215.293 506.268 182 564C144.268 506.268 0 282.638 0 182.079C0 81.5194 81.4842 0 182 0C282.516 0 364 81.5194 364 182.079Z" fill="white"/>
<ellipse id="Ellipse 4.16" cx="182" cy="186.5" rx="160" ry="159.5" fill="#F24A4A"/>
<g id="community center red">
<ellipse id="Ellipse 12.7" cx="181" cy="118.644" rx="33.7111" ry="44.6444" fill="white"/>
<path id="Subtract" d="M300.498 268.067C301.94 268.067 303.186 267.042 303.393 265.615C303.792 262.86 304 260.026 304 257.133C304 229.961 285.644 207.933 263 207.933C240.356 207.933 222 229.961 222 257.133C222 260.026 222.208 262.86 222.607 265.615C222.814 267.042 224.06 268.067 225.502 268.067H300.498Z" fill="white"/>
<path id="Subtract_2" d="M209.488 268C211.042 268 212.341 266.815 212.456 265.266C212.813 260.498 213 255.577 213 250.546C213 207.166 199.121 172 182 172C164.879 172 151 207.166 151 250.546C151 255.577 151.187 260.498 151.544 265.266C151.659 266.815 152.958 268 154.511 268H209.488Z" fill="white"/>
<path id="Subtract_3" d="M137.498 268.067C138.94 268.067 140.186 267.042 140.393 265.615C140.792 262.86 141 260.026 141 257.133C141 229.961 122.644 207.933 100 207.933C77.3563 207.933 59 229.961 59 257.133C59 260.026 59.208 262.86 59.6069 265.615C59.8136 267.042 61.0599 268.067 62.5018 268.067H137.498Z" fill="white"/>
<ellipse id="Ellipse 12.8" cx="263" cy="152.356" rx="33.7111" ry="44.6444" fill="white"/>
<ellipse id="Ellipse 12.9" cx="99.7111" cy="152.356" rx="33.7111" ry="44.6444" fill="white"/>
</g>
</g>
</svg>
