<svg width="364" height="564" viewBox="0 0 364 564" fill="none" xmlns="http://www.w3.org/2000/svg">
<g id="pin resettlement">
<g id="Group 33">
<path id="Ellipse 3.22" d="M182 564C215.293 506.268 364 282.638 364 182.079C364 81.5194 282.516 0 182 0C81.4842 0 0 81.5194 0 182.079C0 282.638 144.268 506.268 182 564Z" fill="white"/>
<ellipse id="Ellipse 4.18" cx="182" cy="183.5" rx="160" ry="159.5" fill="#0072B3"/>
<path id="landmark" d="M277.725 107.989L186.775 72.1932C185.609 71.3977 183.666 71 182.5 71C180.945 71 179.002 71.3977 177.836 72.1932L86.8867 107.989C84.5547 108.784 83 111.17 83 113.955V128.273C83 131.852 85.7207 134.636 89.2188 134.636H275.781C278.891 134.636 282 131.852 282 128.273V113.955C282 111.17 280.057 108.784 277.725 107.989ZM107.875 147.364V211H101.656C98.1582 211 95.4375 214.182 95.4375 217.364V236.455H269.562V217.364C269.562 214.182 266.453 211 263.344 211H257.125V147.364H232.25V211H194.938V147.364H170.062V211H132.75V147.364H107.875ZM275.781 249.182H89.2188C85.7207 249.182 83 252.364 83 255.545L83 274.636C83 278.216 85.7207 281 89.2188 281H275.781C278.891 281 282 278.216 282 274.636V255.545C282 252.364 278.891 249.182 275.781 249.182Z" fill="#FFFDFD"/>
</g>
</g>
</svg>
