<svg width="364" height="564" viewBox="0 0 364 564" fill="none" xmlns="http://www.w3.org/2000/svg">
<g id="pin health">
<path id="Ellipse 3.3" d="M182 564C215.293 506.268 364 282.638 364 182.079C364 81.5194 282.516 0 182 0C81.4842 0 0 81.5194 0 182.079C0 282.638 144.268 506.268 182 564Z" fill="white"/>
<ellipse id="Ellipse 4.3" cx="182" cy="186.5" rx="160" ry="159.5" fill="#0049B3"/>
<g id="Mask Group">
<g id="hospital">
<path fill-rule="evenodd" clip-rule="evenodd" d="M263.429 304L263.857 119.357C263.857 113.902 259.192 109.286 253.679 109.286H216.357V79.0714C216.357 73.6161 211.692 69 206.179 69H158.679C152.741 69 148.5 73.6161 148.5 79.0714V109.286H111.179C105.241 109.286 101 113.902 101 119.357V304H149.857V268.179C149.857 265.661 151.978 263.143 154.946 263.143H207.911C210.455 263.143 213 265.661 213 268.179V304H263.429ZM196.143 154.607C196.143 152.089 193.598 149.571 191.054 149.571H174.089C171.121 149.571 169 152.089 169 154.607V171.393C169 174.33 171.121 176.429 174.089 176.429H191.054C193.598 176.429 196.143 174.33 196.143 171.393V154.607ZM121.714 171.393C121.714 174.33 123.835 176.429 126.804 176.429H143.768C146.313 176.429 148.857 174.33 148.857 171.393V154.607C148.857 152.089 146.313 149.571 143.768 149.571H126.804C123.835 149.571 121.714 152.089 121.714 154.607V171.393ZM196.143 194.893C196.143 192.375 193.598 189.857 191.054 189.857H174.089C171.121 189.857 169 192.375 169 194.893V211.679C169 214.616 171.121 216.714 174.089 216.714H191.054C193.598 216.714 196.143 214.616 196.143 211.679V194.893ZM148.857 211.679V194.893C148.857 192.375 146.313 189.857 143.768 189.857H126.804C123.835 189.857 121.714 192.375 121.714 194.893V211.679C121.714 214.616 123.835 216.714 126.804 216.714H143.768C146.313 216.714 148.857 214.616 148.857 211.679ZM162.071 106.768C162.071 108.446 162.92 109.286 164.616 109.286H175.643V120.196C175.643 121.875 176.491 122.714 178.188 122.714H186.67C187.942 122.714 189.214 121.875 189.214 120.196V109.286H200.241C201.513 109.286 202.786 108.446 202.786 106.768V98.375C202.786 97.1161 201.513 95.8571 200.241 95.8571H189.214V84.9464C189.214 83.6875 187.942 82.4286 186.67 82.4286H178.188C176.491 82.4286 175.643 83.6875 175.643 84.9464V95.8571H164.616C162.92 95.8571 162.071 97.1161 162.071 98.375V106.768ZM243.143 154.607C243.143 152.089 240.598 149.571 238.054 149.571H221.089C218.121 149.571 216 152.089 216 154.607V171.393C216 174.33 218.121 176.429 221.089 176.429H238.054C240.598 176.429 243.143 174.33 243.143 171.393V154.607ZM243.143 194.893C243.143 192.375 240.598 189.857 238.054 189.857H221.089C218.121 189.857 216 192.375 216 194.893V211.679C216 214.616 218.121 216.714 221.089 216.714H238.054C240.598 216.714 243.143 214.616 243.143 211.679V194.893Z" fill="#9B7474"/>
<path fill-rule="evenodd" clip-rule="evenodd" d="M263.429 304L263.857 119.357C263.857 113.902 259.192 109.286 253.679 109.286H216.357V79.0714C216.357 73.6161 211.692 69 206.179 69H158.679C152.741 69 148.5 73.6161 148.5 79.0714V109.286H111.179C105.241 109.286 101 113.902 101 119.357V304H149.857V268.179C149.857 265.661 151.978 263.143 154.946 263.143H207.911C210.455 263.143 213 265.661 213 268.179V304H263.429ZM196.143 154.607C196.143 152.089 193.598 149.571 191.054 149.571H174.089C171.121 149.571 169 152.089 169 154.607V171.393C169 174.33 171.121 176.429 174.089 176.429H191.054C193.598 176.429 196.143 174.33 196.143 171.393V154.607ZM121.714 171.393C121.714 174.33 123.835 176.429 126.804 176.429H143.768C146.313 176.429 148.857 174.33 148.857 171.393V154.607C148.857 152.089 146.313 149.571 143.768 149.571H126.804C123.835 149.571 121.714 152.089 121.714 154.607V171.393ZM196.143 194.893C196.143 192.375 193.598 189.857 191.054 189.857H174.089C171.121 189.857 169 192.375 169 194.893V211.679C169 214.616 171.121 216.714 174.089 216.714H191.054C193.598 216.714 196.143 214.616 196.143 211.679V194.893ZM148.857 211.679V194.893C148.857 192.375 146.313 189.857 143.768 189.857H126.804C123.835 189.857 121.714 192.375 121.714 194.893V211.679C121.714 214.616 123.835 216.714 126.804 216.714H143.768C146.313 216.714 148.857 214.616 148.857 211.679ZM162.071 106.768C162.071 108.446 162.92 109.286 164.616 109.286H175.643V120.196C175.643 121.875 176.491 122.714 178.188 122.714H186.67C187.942 122.714 189.214 121.875 189.214 120.196V109.286H200.241C201.513 109.286 202.786 108.446 202.786 106.768V98.375C202.786 97.1161 201.513 95.8571 200.241 95.8571H189.214V84.9464C189.214 83.6875 187.942 82.4286 186.67 82.4286H178.188C176.491 82.4286 175.643 83.6875 175.643 84.9464V95.8571H164.616C162.92 95.8571 162.071 97.1161 162.071 98.375V106.768ZM243.143 154.607C243.143 152.089 240.598 149.571 238.054 149.571H221.089C218.121 149.571 216 152.089 216 154.607V171.393C216 174.33 218.121 176.429 221.089 176.429H238.054C240.598 176.429 243.143 174.33 243.143 171.393V154.607ZM243.143 194.893C243.143 192.375 240.598 189.857 238.054 189.857H221.089C218.121 189.857 216 192.375 216 194.893V211.679C216 214.616 218.121 216.714 221.089 216.714H238.054C240.598 216.714 243.143 214.616 243.143 211.679V194.893Z" fill="#9B7474"/>
<path fill-rule="evenodd" clip-rule="evenodd" d="M263.429 304L263.857 119.357C263.857 113.902 259.192 109.286 253.679 109.286H216.357V79.0714C216.357 73.6161 211.692 69 206.179 69H158.679C152.741 69 148.5 73.6161 148.5 79.0714V109.286H111.179C105.241 109.286 101 113.902 101 119.357V304H149.857V268.179C149.857 265.661 151.978 263.143 154.946 263.143H207.911C210.455 263.143 213 265.661 213 268.179V304H263.429ZM196.143 154.607C196.143 152.089 193.598 149.571 191.054 149.571H174.089C171.121 149.571 169 152.089 169 154.607V171.393C169 174.33 171.121 176.429 174.089 176.429H191.054C193.598 176.429 196.143 174.33 196.143 171.393V154.607ZM121.714 171.393C121.714 174.33 123.835 176.429 126.804 176.429H143.768C146.313 176.429 148.857 174.33 148.857 171.393V154.607C148.857 152.089 146.313 149.571 143.768 149.571H126.804C123.835 149.571 121.714 152.089 121.714 154.607V171.393ZM196.143 194.893C196.143 192.375 193.598 189.857 191.054 189.857H174.089C171.121 189.857 169 192.375 169 194.893V211.679C169 214.616 171.121 216.714 174.089 216.714H191.054C193.598 216.714 196.143 214.616 196.143 211.679V194.893ZM148.857 211.679V194.893C148.857 192.375 146.313 189.857 143.768 189.857H126.804C123.835 189.857 121.714 192.375 121.714 194.893V211.679C121.714 214.616 123.835 216.714 126.804 216.714H143.768C146.313 216.714 148.857 214.616 148.857 211.679ZM162.071 106.768C162.071 108.446 162.92 109.286 164.616 109.286H175.643V120.196C175.643 121.875 176.491 122.714 178.188 122.714H186.67C187.942 122.714 189.214 121.875 189.214 120.196V109.286H200.241C201.513 109.286 202.786 108.446 202.786 106.768V98.375C202.786 97.1161 201.513 95.8571 200.241 95.8571H189.214V84.9464C189.214 83.6875 187.942 82.4286 186.67 82.4286H178.188C176.491 82.4286 175.643 83.6875 175.643 84.9464V95.8571H164.616C162.92 95.8571 162.071 97.1161 162.071 98.375V106.768ZM243.143 154.607C243.143 152.089 240.598 149.571 238.054 149.571H221.089C218.121 149.571 216 152.089 216 154.607V171.393C216 174.33 218.121 176.429 221.089 176.429H238.054C240.598 176.429 243.143 174.33 243.143 171.393V154.607ZM243.143 194.893C243.143 192.375 240.598 189.857 238.054 189.857H221.089C218.121 189.857 216 192.375 216 194.893V211.679C216 214.616 218.121 216.714 221.089 216.714H238.054C240.598 216.714 243.143 214.616 243.143 211.679V194.893Z" fill="#9B7474"/>
<path fill-rule="evenodd" clip-rule="evenodd" d="M263.429 304L263.857 119.357C263.857 113.902 259.192 109.286 253.679 109.286H216.357V79.0714C216.357 73.6161 211.692 69 206.179 69H158.679C152.741 69 148.5 73.6161 148.5 79.0714V109.286H111.179C105.241 109.286 101 113.902 101 119.357V304H149.857V268.179C149.857 265.661 151.978 263.143 154.946 263.143H207.911C210.455 263.143 213 265.661 213 268.179V304H263.429ZM196.143 154.607C196.143 152.089 193.598 149.571 191.054 149.571H174.089C171.121 149.571 169 152.089 169 154.607V171.393C169 174.33 171.121 176.429 174.089 176.429H191.054C193.598 176.429 196.143 174.33 196.143 171.393V154.607ZM121.714 171.393C121.714 174.33 123.835 176.429 126.804 176.429H143.768C146.313 176.429 148.857 174.33 148.857 171.393V154.607C148.857 152.089 146.313 149.571 143.768 149.571H126.804C123.835 149.571 121.714 152.089 121.714 154.607V171.393ZM196.143 194.893C196.143 192.375 193.598 189.857 191.054 189.857H174.089C171.121 189.857 169 192.375 169 194.893V211.679C169 214.616 171.121 216.714 174.089 216.714H191.054C193.598 216.714 196.143 214.616 196.143 211.679V194.893ZM148.857 211.679V194.893C148.857 192.375 146.313 189.857 143.768 189.857H126.804C123.835 189.857 121.714 192.375 121.714 194.893V211.679C121.714 214.616 123.835 216.714 126.804 216.714H143.768C146.313 216.714 148.857 214.616 148.857 211.679ZM162.071 106.768C162.071 108.446 162.92 109.286 164.616 109.286H175.643V120.196C175.643 121.875 176.491 122.714 178.188 122.714H186.67C187.942 122.714 189.214 121.875 189.214 120.196V109.286H200.241C201.513 109.286 202.786 108.446 202.786 106.768V98.375C202.786 97.1161 201.513 95.8571 200.241 95.8571H189.214V84.9464C189.214 83.6875 187.942 82.4286 186.67 82.4286H178.188C176.491 82.4286 175.643 83.6875 175.643 84.9464V95.8571H164.616C162.92 95.8571 162.071 97.1161 162.071 98.375V106.768ZM243.143 154.607C243.143 152.089 240.598 149.571 238.054 149.571H221.089C218.121 149.571 216 152.089 216 154.607V171.393C216 174.33 218.121 176.429 221.089 176.429H238.054C240.598 176.429 243.143 174.33 243.143 171.393V154.607ZM243.143 194.893C243.143 192.375 240.598 189.857 238.054 189.857H221.089C218.121 189.857 216 192.375 216 194.893V211.679C216 214.616 218.121 216.714 221.089 216.714H238.054C240.598 216.714 243.143 214.616 243.143 211.679V194.893Z" fill="#FFFDFD"/>
</g>
</g>
</g>
</svg>
