<svg width="364" height="564" viewBox="0 0 364 564" fill="none" xmlns="http://www.w3.org/2000/svg">
<g id="pin legal">
<path id="Ellipse 3.23" d="M182 564C215.293 506.268 364 282.638 364 182.079C364 81.5194 282.516 0 182 0C81.4842 0 0 81.5194 0 182.079C0 282.638 144.268 506.268 182 564Z" fill="white"/>
<ellipse id="Ellipse 4.19" cx="182" cy="183.5" rx="160" ry="159.5" fill="#0049B3"/>
<path id="balance-scale" d="M158.403 203.409H158.034C158.034 197.961 158.771 200.685 126.691 141.778C120.422 129.86 101.616 129.86 95.3477 141.778C62.8983 201.026 64.0045 198.302 64.0045 203.409C64.0045 218.732 85.0229 230.65 111.204 230.65C137.016 230.65 158.403 218.732 158.403 203.409ZM111.204 148.929L137.753 197.961H84.6541L111.204 148.929ZM299.631 203.409C299.631 197.961 300.369 200.685 268.288 141.778C262.019 129.86 243.214 129.86 236.945 141.778C204.496 201.026 205.602 198.302 205.602 203.409C205.602 218.732 226.62 230.65 252.801 230.65C278.613 230.65 300 218.732 300 203.409H299.631ZM226.251 197.961L252.801 148.929L279.35 197.961H226.251ZM258.701 241.546H193.802V141.438C202.283 137.692 208.92 130.541 210.764 121.688H258.701C261.651 121.688 264.601 119.305 264.601 116.24V105.344C264.601 102.62 261.651 99.8961 258.701 99.8961H205.233C200.071 93.4265 191.59 89 182.002 89C172.046 89 163.565 93.4265 158.403 99.8961H105.304C101.985 99.8961 99.4038 102.62 99.4038 105.344V116.24C99.4038 119.305 101.985 121.688 105.304 121.688H152.872C154.715 130.541 161.353 137.692 170.202 141.438V241.546H105.304C101.985 241.546 99.4038 244.27 99.4038 246.994V264.552C99.4038 267.616 101.985 270 105.304 270H258.701C261.651 270 264.601 267.616 264.601 264.552V246.994C264.601 244.27 261.651 241.546 258.701 241.546Z" fill="#FFFDFD"/>
</g>
</svg>
