<svg width="364" height="564" viewBox="0 0 364 564" fill="none" xmlns="http://www.w3.org/2000/svg">
<g id="pin job placement">
<path id="Ellipse 3.25" d="M182 564C215.293 506.268 364 282.638 364 182.079C364 81.5194 282.516 0 182 0C81.4842 0 0 81.5194 0 182.079C0 282.638 144.268 506.268 182 564Z" fill="white"/>
<ellipse id="Ellipse 4.21" cx="182" cy="183.5" rx="160" ry="159.5" fill="#C2530E"/>
<path id="briefcase" d="M204.625 203.821C204.625 207.458 201.734 210.286 198.844 210.286H164.156C160.904 210.286 158.375 207.458 158.375 203.821V184.429H89V242.607C89 253.112 96.9492 262 106.344 262H256.656C265.689 262 274 253.112 274 242.607V184.429H204.625V203.821ZM256.656 119.786H227.75V100.393C227.75 90.2924 219.439 81 210.406 81H152.594C143.199 81 135.25 90.2924 135.25 100.393V119.786H106.344C96.9492 119.786 89 129.078 89 139.179L89 171.5H274V139.179C274 129.078 265.689 119.786 256.656 119.786ZM204.625 119.786H158.375V106.857H204.625V119.786Z" fill="#FFFDFD"/>
</g>
</svg>
