<svg width="364" height="564" viewBox="0 0 364 564" fill="none" xmlns="http://www.w3.org/2000/svg">
<g id="pin housing">
<path id="Ellipse 3.26" d="M182 564C215.293 506.268 364 282.638 364 182.079C364 81.5194 282.516 0 182 0C81.4842 0 0 81.5194 0 182.079C0 282.638 144.268 506.268 182 564Z" fill="white"/>
<ellipse id="Ellipse 4.22" cx="182" cy="183.5" rx="160" ry="159.5" fill="#9B7474"/>
<path id="bed" d="M131.425 184C147.031 184 159.8 169.781 159.8 151.5C159.8 133.625 147.031 119 131.425 119C115.464 119 103.05 133.625 103.05 151.5C103.05 169.781 115.464 184 131.425 184ZM256.275 132H176.825C173.633 132 171.15 135.25 171.15 138.5V197H91.7V112.5C91.7 109.25 88.8625 106 86.025 106H74.675C71.4828 106 69 109.25 69 112.5V255.5C69 259.156 71.4828 262 74.675 262H86.025C88.8625 262 91.7 259.156 91.7 255.5V236H273.3V255.5C273.3 259.156 275.783 262 278.975 262H290.325C293.163 262 296 259.156 296 255.5V177.5C296 152.719 277.911 132 256.275 132Z" fill="white"/>
</g>
</svg>
