<svg width="364" height="564" viewBox="0 0 364 564" fill="none" xmlns="http://www.w3.org/2000/svg">
<g id="pin education">
<path id="Ellipse 3.5" d="M364 182.079C364 282.638 215.293 506.268 182 564C144.268 506.268 0 282.638 0 182.079C0 81.5194 81.4842 0 182 0C282.516 0 364 81.5194 364 182.079Z" fill="white"/>
<ellipse id="Ellipse 4.5" cx="182" cy="186.5" rx="160" ry="159.5" fill="#9C5A5A"/>
<path id="graduation-cap" d="M303.122 143.952L191.871 108.544C185.889 106.485 179.111 106.485 173.129 108.544L61.8784 143.952C52.7072 146.835 52.7072 159.598 61.8784 162.48L73.0434 166.642C73.0434 166.642 74.6384 181.008 74.2396 188.007C70.2522 190.478 67.8597 194.595 67.8597 199.124C67.8597 203.653 69.8534 207.358 73.0434 209.829L66.0747 257.177C65.2772 261.294 68.0684 265 72.0559 265H88.7846C92.7721 265 95.5633 261.294 94.7658 257.177L87.7971 209.829C90.9871 207.358 93.3796 203.653 93.3796 199.124C93.3796 194.595 90.5884 190.478 86.9996 188.419C87.3984 182.243 86.9996 175.671 86.9996 171.171L173.129 197.889C176.718 199.124 183.896 200.359 191.871 197.889L303.122 162.48C312.293 159.598 312.293 146.835 303.122 143.952ZM191.871 168.656C180.706 171.95 116.507 170.303 111.722 168.656L106.14 219.65C106.14 234.472 140.033 246 182.699 246C224.967 246 259.259 234.472 259.259 219.65L249.792 162.48L191.871 168.656Z" fill="#FDFEFF"/>
</g>
</svg>
