<?xml version="1.0" encoding="utf-8"?>
<!-- Generator: Adobe Illustrator 23.0.6, SVG Export Plug-In . SVG Version: 6.00 Build 0)  -->
<svg version="1.1" id="Layer_1" xmlns="http://www.w3.org/2000/svg" xmlns:xlink="http://www.w3.org/1999/xlink" x="0px" y="0px"
	 viewBox="0 0 364 564" style="enable-background:new 0 0 364 564;" xml:space="preserve">
<style type="text/css">
	.st0{fill:#FFFF00;}
	.st1{fill:#AC87CF;}
	.st2{opacity:0.2;fill:#FFFF00;}
</style>
<path class="st0" d="M182,5C84.4,5,5,84.4,5,182.1C5,224,30.7,292.8,81.3,386.7c27.4,51,61.2,107.4,100.5,167.8
	c4.9-8.3,11.4-18.9,19.1-31.4c51.3-83.6,158.1-257.6,158.1-341C359,84.4,279.6,5,182,5z M182,343c-88.4,0-160-71.4-160-159.5
	S93.6,24,182,24s160,71.4,160,159.5S270.4,343,182,343z"/>
<path class="st1" d="M182,10c45.9,0,89.1,17.9,121.6,50.4S354,136.1,354,182.1c0,82-106.3,255.2-157.4,338.4
	c-5.7,9.3-10.8,17.5-15,24.6c-37.4-57.8-69.6-111.8-96-160.7c-22.7-42.2-40.6-79.9-53.2-112C17.6,234.4,10,204,10,182.1
	c0-46,17.9-89.2,50.4-121.7S136.1,10,182,10 M182,0C81.5,0,0,81.5,0,182.1C0,282.6,144.3,506.3,182,564
	c33.3-57.7,182-281.4,182-381.9C364,81.5,282.5,0,182,0L182,0z"/>
<ellipse class="st2" cx="182" cy="183.5" rx="160" ry="159.5"/>
</svg>
