<?xml version="1.0" encoding="utf-8"?>
<!-- Generator: Adobe Illustrator 23.0.2, SVG Export Plug-In . SVG Version: 6.00 Build 0)  -->
<svg version="1.1" id="Layer_1" xmlns="http://www.w3.org/2000/svg" xmlns:xlink="http://www.w3.org/1999/xlink" x="0px" y="0px"
	 viewBox="0 0 364 564" enable-background="new 0 0 364 564" xml:space="preserve">
<g>
	<g>
		<path fill="#FFFFFF" d="M181.9,559.2c-19.6-30.2-36.5-58.4-50.2-83.9c-25.3-47-38.1-81.4-38.1-102.3c0-48.8,39.7-88.5,88.5-88.5
			s88.5,39.7,88.5,88.5c0,41.7-53.4,128.7-79.1,170.5C187.6,549.8,184.4,555.1,181.9,559.2z"/>
		<path fill="#AC87CF" d="M182,287c22.9,0,44.6,9,60.8,25.2S268,350,268,373c0,41-53.1,127.6-78.7,169.2c-2.8,4.7-5.4,8.8-7.5,12.3
			c-18.7-28.9-34.8-55.9-48-80.4c-11.4-21.1-20.3-39.9-26.6-56C99.8,399.2,96,384,96,373c0-23,8.9-44.6,25.2-60.8S159.1,287,182,287
			 M182,282c-50.2,0-91,40.8-91,91c0,50.2,72.1,162.1,91,191c16.6-28.8,91-140.7,91-191C273,322.8,232.2,282,182,282L182,282z"/>
	</g>
</g>
</svg>
