<svg xmlns="http://www.w3.org/2000/svg" width="32" height="32" viewBox="0 0 32 32"><defs><style>.a{fill:#505050;}</style></defs><path class="a" d="M23.21,37.8l-1.462-1.475a.818.818,0,0,1,.042-1.2l3.265-2.891a.932.932,0,0,1,.617-.23h2.374a.878.878,0,0,1,.9.851v9.016h1.929a.878.878,0,0,1,.9.851v2.053a.878.878,0,0,1-.9.851H22.672a.878.878,0,0,1-.9-.851V42.723a.878.878,0,0,1,.9-.851h1.91V37.76a.952.952,0,0,1-1.372.043Zm-2.3,16.927a4.844,4.844,0,0,1,5.118-4.779C28.905,49.951,32,52,32,56.5c0,3.638-2.423,7.5-6.913,7.5a8.1,8.1,0,0,1-2.9-.481.837.837,0,0,1-.52-1.043l.694-2.092a.915.915,0,0,1,1.163-.547,2.921,2.921,0,0,0,2.864-.294A4.812,4.812,0,0,1,20.912,54.73ZM27.848,56.1a2.449,2.449,0,0,0-1.942-2.59,1.033,1.033,0,0,0-.989,1.123,1.659,1.659,0,0,0,1.892,1.715c.75,0,1.005-.153,1.033-.194A.16.16,0,0,0,27.848,56.1ZM13.227,55.84H9.62V33.135A1.17,1.17,0,0,0,8.418,32H6.013a1.17,1.17,0,0,0-1.2,1.135V55.84H1.2a1.129,1.129,0,0,0-.85,1.938l6.011,5.676a1.254,1.254,0,0,0,1.7,0l6.012-5.676a1.129,1.129,0,0,0-.85-1.938Z" transform="translate(0 -32)"/></svg>