<svg width="487" height="487" viewBox="0 0 487 487" fill="none" xmlns="http://www.w3.org/2000/svg">
<mask id="path-1-inside-1" fill="white">
<path d="M487 243.5C487 377.981 377.981 487 243.5 487C109.019 487 0 377.981 0 243.5C0 109.019 109.019 0 243.5 0C377.981 0 487 109.019 487 243.5Z"/>
</mask>
<path d="M487 243.5C487 377.981 377.981 487 243.5 487C109.019 487 0 377.981 0 243.5C0 109.019 109.019 0 243.5 0C377.981 0 487 109.019 487 243.5Z" fill="white" stroke="#7841AC" stroke-width="70" mask="url(#path-1-inside-1)"/>
<mask id="path-2-outside-2" maskUnits="userSpaceOnUse" x="155" y="101" width="175" height="297" fill="black">
<rect fill="white" x="155" y="101" width="175" height="297"/>
<path d="M221.5 312.203C221.63 302.828 222.021 295.146 222.672 289.156C223.323 283.036 224.69 277.633 226.773 272.945C228.857 268.128 231.852 263.57 235.758 259.273C239.664 254.846 244.872 249.638 251.383 243.648C255.81 239.091 260.302 234.404 264.859 229.586C269.547 224.768 273.779 219.755 277.555 214.547C281.461 209.208 284.651 203.609 287.125 197.75C289.599 191.891 290.836 185.706 290.836 179.195C290.836 165.003 286.734 154.195 278.531 146.773C270.328 139.221 258.609 135.445 243.375 135.445C237.255 135.445 231.266 136.227 225.406 137.789C219.677 139.221 214.534 141.565 209.977 144.82C205.549 147.945 201.969 151.982 199.234 156.93C196.5 161.747 195.133 167.542 195.133 174.312H159C159.13 163.375 161.409 153.544 165.836 144.82C170.263 136.096 176.188 128.74 183.609 122.75C191.161 116.63 200.016 112.008 210.172 108.883C220.458 105.628 231.526 104 243.375 104C256.526 104 268.245 105.693 278.531 109.078C288.948 112.333 297.737 117.151 304.898 123.531C312.06 129.911 317.529 137.659 321.305 146.773C325.081 155.888 326.969 166.305 326.969 178.023C326.969 187.398 325.341 196.253 322.086 204.586C318.831 212.789 314.664 220.602 309.586 228.023C304.508 235.315 298.779 242.151 292.398 248.531C286.148 254.911 279.964 260.836 273.844 266.305C269.938 270.081 266.878 273.661 264.664 277.047C262.581 280.432 261.018 283.883 259.977 287.398C258.935 290.914 258.284 294.69 258.023 298.727C257.763 302.633 257.633 307.125 257.633 312.203H221.5ZM217.398 373.336C217.398 367.086 219.221 361.878 222.867 357.711C226.643 353.544 232.242 351.461 239.664 351.461C247.086 351.461 252.685 353.544 256.461 357.711C260.367 361.878 262.32 367.086 262.32 373.336C262.32 379.326 260.367 384.339 256.461 388.375C252.685 392.411 247.086 394.43 239.664 394.43C232.242 394.43 226.643 392.411 222.867 388.375C219.221 384.339 217.398 379.326 217.398 373.336Z"/>
</mask>
<path d="M221.5 312.203C221.63 302.828 222.021 295.146 222.672 289.156C223.323 283.036 224.69 277.633 226.773 272.945C228.857 268.128 231.852 263.57 235.758 259.273C239.664 254.846 244.872 249.638 251.383 243.648C255.81 239.091 260.302 234.404 264.859 229.586C269.547 224.768 273.779 219.755 277.555 214.547C281.461 209.208 284.651 203.609 287.125 197.75C289.599 191.891 290.836 185.706 290.836 179.195C290.836 165.003 286.734 154.195 278.531 146.773C270.328 139.221 258.609 135.445 243.375 135.445C237.255 135.445 231.266 136.227 225.406 137.789C219.677 139.221 214.534 141.565 209.977 144.82C205.549 147.945 201.969 151.982 199.234 156.93C196.5 161.747 195.133 167.542 195.133 174.312H159C159.13 163.375 161.409 153.544 165.836 144.82C170.263 136.096 176.188 128.74 183.609 122.75C191.161 116.63 200.016 112.008 210.172 108.883C220.458 105.628 231.526 104 243.375 104C256.526 104 268.245 105.693 278.531 109.078C288.948 112.333 297.737 117.151 304.898 123.531C312.06 129.911 317.529 137.659 321.305 146.773C325.081 155.888 326.969 166.305 326.969 178.023C326.969 187.398 325.341 196.253 322.086 204.586C318.831 212.789 314.664 220.602 309.586 228.023C304.508 235.315 298.779 242.151 292.398 248.531C286.148 254.911 279.964 260.836 273.844 266.305C269.938 270.081 266.878 273.661 264.664 277.047C262.581 280.432 261.018 283.883 259.977 287.398C258.935 290.914 258.284 294.69 258.023 298.727C257.763 302.633 257.633 307.125 257.633 312.203H221.5ZM217.398 373.336C217.398 367.086 219.221 361.878 222.867 357.711C226.643 353.544 232.242 351.461 239.664 351.461C247.086 351.461 252.685 353.544 256.461 357.711C260.367 361.878 262.32 367.086 262.32 373.336C262.32 379.326 260.367 384.339 256.461 388.375C252.685 392.411 247.086 394.43 239.664 394.43C232.242 394.43 226.643 392.411 222.867 388.375C219.221 384.339 217.398 379.326 217.398 373.336Z" fill="#7841AC"/>
<path d="M221.5 312.203C221.63 302.828 222.021 295.146 222.672 289.156C223.323 283.036 224.69 277.633 226.773 272.945C228.857 268.128 231.852 263.57 235.758 259.273C239.664 254.846 244.872 249.638 251.383 243.648C255.81 239.091 260.302 234.404 264.859 229.586C269.547 224.768 273.779 219.755 277.555 214.547C281.461 209.208 284.651 203.609 287.125 197.75C289.599 191.891 290.836 185.706 290.836 179.195C290.836 165.003 286.734 154.195 278.531 146.773C270.328 139.221 258.609 135.445 243.375 135.445C237.255 135.445 231.266 136.227 225.406 137.789C219.677 139.221 214.534 141.565 209.977 144.82C205.549 147.945 201.969 151.982 199.234 156.93C196.5 161.747 195.133 167.542 195.133 174.312H159C159.13 163.375 161.409 153.544 165.836 144.82C170.263 136.096 176.188 128.74 183.609 122.75C191.161 116.63 200.016 112.008 210.172 108.883C220.458 105.628 231.526 104 243.375 104C256.526 104 268.245 105.693 278.531 109.078C288.948 112.333 297.737 117.151 304.898 123.531C312.06 129.911 317.529 137.659 321.305 146.773C325.081 155.888 326.969 166.305 326.969 178.023C326.969 187.398 325.341 196.253 322.086 204.586C318.831 212.789 314.664 220.602 309.586 228.023C304.508 235.315 298.779 242.151 292.398 248.531C286.148 254.911 279.964 260.836 273.844 266.305C269.938 270.081 266.878 273.661 264.664 277.047C262.581 280.432 261.018 283.883 259.977 287.398C258.935 290.914 258.284 294.69 258.023 298.727C257.763 302.633 257.633 307.125 257.633 312.203H221.5ZM217.398 373.336C217.398 367.086 219.221 361.878 222.867 357.711C226.643 353.544 232.242 351.461 239.664 351.461C247.086 351.461 252.685 353.544 256.461 357.711C260.367 361.878 262.32 367.086 262.32 373.336C262.32 379.326 260.367 384.339 256.461 388.375C252.685 392.411 247.086 394.43 239.664 394.43C232.242 394.43 226.643 392.411 222.867 388.375C219.221 384.339 217.398 379.326 217.398 373.336Z" stroke="#7841AC" stroke-width="6" stroke-linecap="square" mask="url(#path-2-outside-2)"/>
</svg>
